<svg width="308" height="103" viewBox="0 0 308 103" fill="none" xmlns="http://www.w3.org/2000/svg">
<g filter="url(#filter0_d)">
<path d="M72.7891 19.6445C72.6484 19.8555 72.5664 20.0898 72.543 20.3477C72.5195 20.6055 72.5078 20.8398 72.5078 21.0508C72.5078 21.332 72.5078 21.6133 72.5078 21.8945C72.5312 22.1523 72.543 22.4102 72.543 22.668V23.1953C72.4961 23.3594 72.4258 23.5234 72.332 23.6875C72.2383 23.8516 72.168 24.0156 72.1211 24.1797C71.793 25.0469 71.6289 25.9141 71.6289 26.7812V26.8516C71.5117 27.1328 71.3945 27.3906 71.2773 27.625C71.1836 27.8594 71.0898 28.0938 70.9961 28.3281C70.9023 28.5391 70.832 28.7734 70.7852 29.0312C70.7383 29.2656 70.7266 29.5469 70.75 29.875C70.4219 30.6953 69.9883 31.4453 69.4492 32.125C68.9102 32.7812 68.3828 33.4609 67.8672 34.1641C67.375 34.3516 66.918 34.5977 66.4961 34.9023C66.0977 35.207 65.7109 35.5469 65.3359 35.9219C64.6094 36.1562 63.8945 36.4258 63.1914 36.7305C62.4883 37.0352 61.8555 37.4453 61.293 37.9609C60.8477 38.0078 60.4023 38.0781 59.957 38.1719C59.5117 38.2656 59.0781 38.4062 58.6562 38.5938H58.2344C58.0234 38.5938 57.8711 38.5469 57.7773 38.4531C57.4727 38.6172 57.1562 38.7344 56.8281 38.8047C56.5 38.8516 56.1719 38.875 55.8438 38.875C55.4219 38.875 55 38.8516 54.5781 38.8047C54.1797 38.7344 53.7695 38.6641 53.3477 38.5938C53.1133 38.2656 52.7852 38.0195 52.3633 37.8555C51.9414 37.668 51.5664 37.4922 51.2383 37.3281C50.5586 36.3906 50.0664 35.4883 49.7617 34.6211C49.457 33.7305 49.1406 32.7344 48.8125 31.6328C48.8594 31.3047 48.9414 30.9883 49.0586 30.6836C49.1758 30.3555 49.2227 30.0039 49.1992 29.6289C49.6211 28.4102 50.1719 27.3086 50.8516 26.3242C51.5547 25.3164 52.3516 24.3555 53.2422 23.4414C53.2422 23.3008 53.2656 23.1836 53.3125 23.0898C53.3828 22.9961 53.3945 22.8555 53.3477 22.668C53.3711 22.6914 53.418 22.7031 53.4883 22.7031C53.6758 22.7031 53.793 22.6562 53.8398 22.5625C53.8867 22.4453 53.8984 22.3164 53.875 22.1758C54.7188 21.6367 55.4805 21.0156 56.1602 20.3125C56.8633 19.6094 57.6602 19.0234 58.5508 18.5547C58.6211 18.3438 58.7383 18.168 58.9023 18.0273C59.0664 17.8867 59.1953 17.7227 59.2891 17.5352C60.0391 17.3242 60.7188 17.0078 61.3281 16.5859C61.9375 16.1641 62.582 15.7891 63.2617 15.4609C63.6367 15.25 63.9883 15.1094 64.3164 15.0391C64.668 14.9453 65.043 14.8516 65.4414 14.7578C65.582 14.7109 65.7109 14.6758 65.8281 14.6523C65.9453 14.6289 66.0742 14.6172 66.2148 14.6172C66.6367 14.6172 67.0469 14.6992 67.4453 14.8633C67.8438 15.0039 68.2539 15.0742 68.6758 15.0742C68.793 15.0742 68.8867 15.0742 68.957 15.0742C69.0508 15.0508 69.1445 15.0273 69.2383 15.0039C69.6367 15.4961 70.1406 15.8711 70.75 16.1289C70.8906 16.4805 71.0547 16.7852 71.2422 17.043C71.4531 17.3008 71.6641 17.5586 71.875 17.8164C72.0859 18.0508 72.2734 18.3203 72.4375 18.625C72.625 18.9062 72.7422 19.2461 72.7891 19.6445ZM69.2734 21.4727C69.2734 21.3555 69.2617 21.25 69.2383 21.1562C69.0039 21.0859 68.7812 20.9922 68.5703 20.875C68.3594 20.7578 68.125 20.6992 67.8672 20.6992C67.7031 20.6992 67.5391 20.7344 67.375 20.8047C67.3516 20.6406 67.2812 20.5234 67.1641 20.4531C67.0703 20.3828 66.9531 20.3242 66.8125 20.2773C66.6953 20.207 66.5664 20.1602 66.4258 20.1367C66.3086 20.0898 66.2031 20.0195 66.1094 19.9258C66.0391 19.7383 65.957 19.5508 65.8633 19.3633C65.793 19.1523 65.6523 19 65.4414 18.9062C65.2305 19.1172 64.9844 19.293 64.7031 19.4336C64.4219 19.5508 64.1289 19.668 63.8242 19.7852C63.543 19.9023 63.2617 20.043 62.9805 20.207C62.7227 20.3711 62.5 20.5703 62.3125 20.8047H61.6797C61.5391 21.0625 61.3398 21.2617 61.082 21.4023C60.8242 21.5195 60.6016 21.6953 60.4141 21.9297C60.0391 22.1172 59.6875 22.3516 59.3594 22.6328C59.0547 22.8906 58.75 23.1719 58.4453 23.4766C58.1406 23.7578 57.8359 24.0508 57.5312 24.3555C57.25 24.6602 56.9453 24.9414 56.6172 25.1992C56.3125 25.8555 55.9727 26.4297 55.5977 26.9219C55.2461 27.3906 54.9062 27.8711 54.5781 28.3633C54.2734 28.8555 54.0039 29.3945 53.7695 29.9805C53.5586 30.543 53.4531 31.2461 53.4531 32.0898V32.4414C53.4531 32.5586 53.4648 32.6758 53.4883 32.793C53.793 33.1211 54.0391 33.4727 54.2266 33.8477C54.4375 34.2227 54.7773 34.4922 55.2461 34.6562C55.7148 34.8438 56.207 34.9258 56.7227 34.9023C57.2617 34.8789 57.7773 34.9375 58.2695 35.0781C59.3945 34.8672 60.4727 34.5273 61.5039 34.0586C62.5586 33.5664 63.5547 32.9805 64.4922 32.3008C64.6328 32.1836 64.7969 32.0664 64.9844 31.9492C65.1719 31.8086 65.3242 31.668 65.4414 31.5273C65.5586 31.4102 65.6523 31.2812 65.7227 31.1406C65.8164 31 65.9102 30.8711 66.0039 30.7539C66.1914 30.4492 66.4023 30.1445 66.6367 29.8398C66.8711 29.5352 67.1172 29.2539 67.375 28.9961C67.4922 28.4805 67.6445 27.9883 67.832 27.5195C68.0195 27.0273 68.207 26.5469 68.3945 26.0781C68.582 25.6094 68.7344 25.1289 68.8516 24.6367C68.9922 24.1445 69.0625 23.6289 69.0625 23.0898C69.0625 22.9727 69.0508 22.8438 69.0273 22.7031C69.0273 22.5625 69.0156 22.4336 68.9922 22.3164C69.1797 22.0586 69.2734 21.7773 69.2734 21.4727ZM115.152 23.582C115.059 23.8164 114.965 24.0391 114.871 24.25C114.777 24.4609 114.707 24.6953 114.66 24.9531C114.496 25.0703 114.309 25.1641 114.098 25.2344C113.91 25.2812 113.711 25.3398 113.5 25.4102C113.289 25.457 113.09 25.5273 112.902 25.6211C112.738 25.6914 112.609 25.8086 112.516 25.9727C112.445 26.3242 112.41 26.6523 112.41 26.957C112.41 27.3555 112.48 27.6953 112.621 27.9766C112.551 28.1875 112.504 28.4102 112.48 28.6445C112.457 28.8789 112.445 29.1016 112.445 29.3125C112.445 30.0859 112.539 30.8594 112.727 31.6328C112.914 32.3828 113.02 33.1445 113.043 33.918C113.043 34.0352 113.031 34.1641 113.008 34.3047C112.984 34.4453 112.973 34.5742 112.973 34.6914C112.973 35.1836 113.16 35.5117 113.535 35.6758C113.465 35.793 113.43 35.8984 113.43 35.9922C113.43 36.1797 113.453 36.3438 113.5 36.4844C113.547 36.625 113.559 36.7773 113.535 36.9414C113.652 37.1758 113.77 37.3867 113.887 37.5742C114.004 37.7383 114.086 37.9492 114.133 38.207C113.969 38.5352 113.77 38.8398 113.535 39.1211C113.301 39.3789 113.137 39.707 113.043 40.1055C112.949 40.082 112.844 40.0703 112.727 40.0703C112.562 40.0703 112.434 40.1055 112.34 40.1758C112.246 40.2461 112.164 40.3281 112.094 40.4219C112.047 40.5391 111.988 40.6445 111.918 40.7383C111.848 40.8555 111.754 40.9375 111.637 40.9844H111.531C111.414 41.0078 111.309 40.9961 111.215 40.9492C111.145 40.9258 111.074 40.9141 111.004 40.9141C110.957 40.9141 110.863 40.9375 110.723 40.9844C110.535 40.75 110.406 40.4688 110.336 40.1406C110.266 39.8359 110.23 39.5312 110.23 39.2266C110.23 38.8984 110.277 38.6055 110.371 38.3477C110.113 38.1367 109.949 37.8203 109.879 37.3984C109.832 36.9766 109.773 36.625 109.703 36.3438C109.516 35.4766 109.293 34.6328 109.035 33.8125C108.801 32.9922 108.66 32.1484 108.613 31.2812C108.59 30.9531 108.578 30.6367 108.578 30.332V28.5039C108.578 28.1992 108.59 27.9062 108.613 27.625C108.613 27.4141 108.625 27.2148 108.648 27.0273C108.695 26.8164 108.719 26.6055 108.719 26.3945C108.719 26.1133 108.625 25.8438 108.438 25.5859C106.773 25.6562 105.191 25.9609 103.691 26.5C102.215 27.0156 100.738 27.6367 99.2617 28.3633C99.168 28.9023 99.1094 29.4297 99.0859 29.9453C99.0625 30.4609 99.0508 30.9883 99.0508 31.5273V33.0742C99.0508 33.6602 99.0742 34.1523 99.1211 34.5508C99.2383 35.2305 99.5781 35.7578 100.141 36.1328C100.727 36.4844 101.312 36.7539 101.898 36.9414C101.875 37.293 101.805 37.5977 101.688 37.8555C101.57 38.0898 101.418 38.3125 101.23 38.5234C101.066 38.7109 100.879 38.8984 100.668 39.0859C100.457 39.2734 100.246 39.4844 100.035 39.7188C99.8477 39.6016 99.6602 39.5195 99.4727 39.4727C99.2852 39.4258 99.0859 39.4023 98.875 39.4023C98.6641 39.3789 98.4531 39.3555 98.2422 39.332C98.0312 39.3086 97.8203 39.2617 97.6094 39.1914L96.8359 38.1367C96.5781 37.7852 96.2969 37.4336 95.9922 37.082V36.7656C95.9922 36.1328 95.875 35.5234 95.6406 34.9375C95.4062 34.3516 95.2305 33.7539 95.1133 33.1445C95.1836 32.9336 95.2305 32.7227 95.2539 32.5117C95.2773 32.3008 95.2891 32.0781 95.2891 31.8438C95.2891 31.375 95.2656 30.918 95.2188 30.4727C95.1953 30.0273 95.207 29.582 95.2539 29.1367H95.0781C94.8672 29.1367 94.6445 29.1953 94.4102 29.3125C94.1758 29.4062 93.9414 29.5234 93.707 29.6641C93.4961 29.7812 93.2852 29.8984 93.0742 30.0156C92.8867 30.1094 92.7227 30.1562 92.582 30.1562C92.5117 30.1562 92.4414 30.1445 92.3711 30.1211C92.3008 30.0977 92.2188 30.0859 92.125 30.0859C92.0078 30.0859 91.8672 30.1328 91.7031 30.2266C91.5391 30.3203 91.3633 30.4258 91.1758 30.543C90.9648 30.6367 90.7539 30.7305 90.543 30.8242C90.332 30.918 90.1211 30.9648 89.9102 30.9648C89.582 30.9648 89.2539 30.8242 88.9258 30.543C88.8789 30.3555 88.8672 30.1797 88.8906 30.0156C88.8906 29.8516 88.8906 29.6758 88.8906 29.4883C88.8906 29.3008 88.8555 29.1016 88.7852 28.8906C88.9492 28.5859 89.1719 28.3516 89.4531 28.1875C89.7109 28 89.9922 27.8359 90.2969 27.6953C90.5781 27.5312 90.8711 27.3789 91.1758 27.2383C91.4805 27.0742 91.7383 26.8633 91.9492 26.6055H92.1602C92.4883 26.6055 92.7812 26.5352 93.0391 26.3945C93.3203 26.2539 93.6367 26.1953 93.9883 26.2188C94.1055 26.1719 94.1875 25.9961 94.2344 25.6914L94.375 25.7266C94.8906 25.7266 95.3477 25.5508 95.7461 25.1992C96.0039 23.7461 96.2148 22.2812 96.3789 20.8047C96.543 19.3281 96.625 17.8516 96.625 16.375C96.625 16.2344 96.5781 16.0938 96.4844 15.9531C96.4375 15.7656 96.4141 15.5898 96.4141 15.4258V14.8984C96.4141 14.6406 96.4258 14.3711 96.4492 14.0898C96.4727 13.8086 96.5312 13.5273 96.625 13.2461C96.8594 13.1055 97.1055 13.0352 97.3633 13.0352C97.668 13.0352 97.9609 13.082 98.2422 13.1758C98.5469 13.2461 98.8398 13.3047 99.1211 13.3516C99.332 13.5625 99.4844 13.7969 99.5781 14.0547C99.6953 14.3125 99.7656 14.582 99.7891 14.8633C99.8125 15.1211 99.8125 15.3906 99.7891 15.6719C99.7891 15.9297 99.7891 16.1875 99.7891 16.4453C99.7891 16.9609 99.8477 17.4648 99.9648 17.957C100.082 18.4492 100.141 18.9297 100.141 19.3984C100.141 19.5156 100.094 19.6094 100 19.6797C99.9297 19.7266 99.8945 19.8789 99.8945 20.1367C99.8945 20.3945 99.918 20.6641 99.9648 20.9453C100.012 21.2266 100.035 21.5078 100.035 21.7891C100.035 22.1172 99.9883 22.457 99.8945 22.8086C99.8008 23.1602 99.7188 23.5 99.6484 23.8281C101.055 23.7109 102.496 23.5352 103.973 23.3008C105.449 23.0664 106.855 22.6914 108.191 22.1758C108.215 22.1289 108.227 22.0586 108.227 21.9648C108.227 21.8242 108.215 21.6836 108.191 21.543C108.168 21.4023 108.156 21.25 108.156 21.0859C108.156 20.8047 108.25 20.582 108.438 20.418C108.32 19.7617 108.238 19.1055 108.191 18.4492C108.145 17.793 108.121 17.1367 108.121 16.4805V14.4766C108.121 13.8203 108.109 13.1641 108.086 12.5078C108.273 12.3906 108.473 12.332 108.684 12.332C108.941 12.332 109.176 12.4023 109.387 12.543C109.621 12.6602 109.891 12.7188 110.195 12.7188C110.406 12.7188 110.582 12.6836 110.723 12.6133C110.98 12.8477 111.156 13.1523 111.25 13.5273C111.344 13.9023 111.426 14.2891 111.496 14.6875C111.566 15.0859 111.637 15.4844 111.707 15.8828C111.801 16.2578 111.977 16.5625 112.234 16.7969L112.27 16.9023C112.27 16.9961 112.223 17.0664 112.129 17.1133C112.035 17.1602 111.988 17.2539 111.988 17.3945V17.5352C112.082 17.9102 112.152 18.2969 112.199 18.6953C112.246 19.0938 112.281 19.5039 112.305 19.9258C112.352 20.3242 112.41 20.7227 112.48 21.1211C112.551 21.4961 112.68 21.8477 112.867 22.1758C112.984 22.1523 113.137 22.1406 113.324 22.1406C113.793 22.1406 114.156 22.3047 114.414 22.6328C114.695 22.9375 114.941 23.2539 115.152 23.582ZM201.988 35.5703C201.871 35.9453 201.836 36.3203 201.883 36.6953C201.812 36.7891 201.73 36.8477 201.637 36.8711C201.543 36.8945 201.449 36.9297 201.355 36.9766C201.262 37 201.18 37.0469 201.109 37.1172C201.062 37.1641 201.062 37.2695 201.109 37.4336C200.336 37.4805 199.598 37.6445 198.895 37.9258C198.191 38.207 197.5 38.5117 196.82 38.8398C196.469 38.7227 196.164 38.582 195.906 38.418C195.648 38.2539 195.32 38.1484 194.922 38.1016C194.523 37.3047 194.148 36.4727 193.797 35.6055C193.469 34.7148 193.305 33.8242 193.305 32.9336C193.305 32.2773 193.422 31.6797 193.656 31.1406C193.656 30.4375 193.715 29.7461 193.832 29.0664C193.949 28.3867 194.078 27.7188 194.219 27.0625C194.383 26.3828 194.523 25.7031 194.641 25.0234C194.758 24.3438 194.816 23.6523 194.816 22.9492V22.1758C194.77 22.1758 194.711 22.2344 194.641 22.3516C194.57 22.4453 194.5 22.5625 194.43 22.7031C194.383 22.8203 194.336 22.9375 194.289 23.0547C194.242 23.1719 194.207 23.2422 194.184 23.2656C193.785 23.5703 193.469 23.957 193.234 24.4258C193.023 24.8711 192.789 25.293 192.531 25.6914C192.203 26.1836 191.852 26.6641 191.477 27.1328C191.125 27.6016 190.68 27.9648 190.141 28.2227V28.293C190.141 28.4102 190.105 28.4922 190.035 28.5391C189.965 28.5859 189.953 28.7031 190 28.8906C189.414 29.0781 188.863 29.3477 188.348 29.6992C187.855 30.0508 187.445 30.4961 187.117 31.0352C186.648 31.1523 186.203 31.3164 185.781 31.5273C185.383 31.7148 184.973 31.9258 184.551 32.1602C184.363 32.2539 184.164 32.3711 183.953 32.5117C183.742 32.6523 183.531 32.7461 183.32 32.793C183.133 32.8633 182.875 32.9102 182.547 32.9336C182.242 32.957 181.914 32.9805 181.562 33.0039C181.234 33.0273 180.906 33.0391 180.578 33.0391H179.805C179.688 33.0391 179.535 32.9805 179.348 32.8633C179.16 32.7461 178.949 32.6172 178.715 32.4766C178.504 32.3359 178.281 32.207 178.047 32.0898C177.812 31.9492 177.59 31.8555 177.379 31.8086C177.191 31.1992 176.922 30.6602 176.57 30.1914C176.242 29.6992 175.891 29.207 175.516 28.7148C175.398 28.1523 175.234 27.5664 175.023 26.957C174.836 26.3477 174.496 25.8438 174.004 25.4453C174.121 25.2812 174.18 25.0938 174.18 24.8828C174.18 24.625 174.121 24.3789 174.004 24.1445C173.887 23.9102 173.828 23.6523 173.828 23.3711C173.828 23.1836 173.84 23.043 173.863 22.9492C173.605 23.2305 173.418 23.5938 173.301 24.0391C173.207 24.4609 173.16 24.8477 173.16 25.1992C173.16 25.4805 173.195 25.7383 173.266 25.9727C173.031 26.3008 172.879 26.7109 172.809 27.2031C172.762 27.6953 172.738 28.1289 172.738 28.5039C172.738 28.9727 172.773 29.4297 172.844 29.875C172.469 30.25 172.281 30.707 172.281 31.2461C172.281 31.5508 172.352 31.8203 172.492 32.0547C172.492 32.1484 172.469 32.2188 172.422 32.2656C172.375 32.3125 172.316 32.3477 172.246 32.3711C172.199 32.3945 172.141 32.4297 172.07 32.4766C172.023 32.5 172 32.5586 172 32.6523C172 32.7695 172 32.8984 172 33.0391C172.023 33.1797 172.035 33.3203 172.035 33.4609C172.035 33.7891 172.023 34.1289 172 34.4805C171.977 34.832 171.965 35.1719 171.965 35.5C171.965 36.1797 172.023 36.6719 172.141 36.9766C172.281 37.2578 172.445 37.4688 172.633 37.6094C172.844 37.75 173.066 37.8906 173.301 38.0312C173.535 38.1719 173.77 38.4414 174.004 38.8398C173.934 39.0508 173.805 39.2266 173.617 39.3672C173.453 39.4844 173.289 39.6133 173.125 39.7539C172.984 39.8711 172.855 40.0117 172.738 40.1758C172.621 40.3398 172.574 40.5742 172.598 40.8789H172.422C172.117 40.8789 171.824 40.9258 171.543 41.0195C171.262 41.1133 170.969 41.1602 170.664 41.1602C170.594 41.1602 170.523 41.1484 170.453 41.125C170.383 41.125 170.312 41.125 170.242 41.125L169.891 40.9141C169.773 40.8438 169.656 40.8086 169.539 40.8086C169.422 40.8086 169.27 40.832 169.082 40.8789C168.754 39.8242 168.496 38.7344 168.309 37.6094C168.145 36.4844 168.062 35.3828 168.062 34.3047C168.062 34.1875 168.086 34.0703 168.133 33.9531C168.203 33.8125 168.297 33.7656 168.414 33.8125V33.1445C168.414 32.418 168.473 31.7148 168.59 31.0352C168.73 30.332 168.801 29.6055 168.801 28.8555C168.801 28.6445 168.789 28.4336 168.766 28.2227C168.766 28.0117 168.754 27.8125 168.73 27.625C168.848 27.2266 168.965 26.8281 169.082 26.4297C169.223 26.0078 169.293 25.5742 169.293 25.1289C169.293 24.9414 169.258 24.7188 169.188 24.4609C169.375 24.3203 169.516 24.1445 169.609 23.9336C169.703 23.6992 169.773 23.4531 169.82 23.1953C169.867 22.9141 169.902 22.6445 169.926 22.3867C169.949 22.1289 169.973 21.8945 169.996 21.6836C170.23 21.2148 170.359 20.7109 170.383 20.1719C170.406 19.6328 170.523 19.1289 170.734 18.6602C170.711 18.5664 170.699 18.4023 170.699 18.168C170.699 17.6992 170.77 17.2305 170.91 16.7617C171.074 16.2695 171.391 15.8945 171.859 15.6367C172.281 15.8008 172.773 15.8828 173.336 15.8828C173.875 15.8828 174.391 15.8008 174.883 15.6367C175.023 15.6836 175.152 15.7422 175.27 15.8125C175.387 15.8594 175.504 15.918 175.621 15.9883C175.762 16.0352 175.902 16.082 176.043 16.1289C176.184 16.1523 176.348 16.1523 176.535 16.1289C176.77 16.8086 176.969 17.5 177.133 18.2031C177.32 18.9062 177.461 19.6211 177.555 20.3477C177.602 20.6523 177.613 20.9805 177.59 21.332C177.59 21.6836 177.613 22.0117 177.66 22.3164C177.684 22.5039 177.742 22.6797 177.836 22.8438C177.93 22.9844 178.023 23.1484 178.117 23.3359C178.211 23.5234 178.281 23.7344 178.328 23.9688C178.398 24.2031 178.422 24.4961 178.398 24.8477C178.656 25.457 178.938 26.043 179.242 26.6055C179.57 27.1445 179.922 27.6836 180.297 28.2227C180.508 28.293 180.695 28.3867 180.859 28.5039C181.023 28.5977 181.129 28.7617 181.176 28.9961C181.387 28.9961 181.574 29.0312 181.738 29.1016L182.336 29.2773C183.227 28.9961 184.047 28.6211 184.797 28.1523C185.57 27.6836 186.379 27.2852 187.223 26.957C188.254 25.9492 189.145 24.8359 189.895 23.6172C190.645 22.375 191.395 21.1445 192.145 19.9258V19.1523C192.285 19.082 192.402 19 192.496 18.9062C192.613 18.7891 192.754 18.707 192.918 18.6602C192.941 18.3789 193 18.1094 193.094 17.8516C193.211 17.5703 193.328 17.3125 193.445 17.0781C193.586 16.8203 193.703 16.5742 193.797 16.3398C193.891 16.082 193.938 15.8125 193.938 15.5312C193.938 15.3672 193.926 15.2266 193.902 15.1094C194.254 14.7578 194.676 14.582 195.168 14.582C195.637 14.582 196.105 14.6992 196.574 14.9336C197.066 15.1445 197.523 15.3437 197.945 15.5312C198.203 16.0938 198.391 16.6914 198.508 17.3242C198.648 17.9336 198.742 18.5664 198.789 19.2227C198.836 19.8789 198.859 20.5352 198.859 21.1914V23.6875C198.836 23.875 198.766 24.0156 198.648 24.1094C198.555 24.1797 198.484 24.2969 198.438 24.4609V24.8125C198.438 24.9297 198.426 25.0469 198.402 25.1641C198.402 25.6562 198.344 26.1719 198.227 26.7109C198.109 27.3906 197.957 28.082 197.77 28.7852C197.605 29.4648 197.523 30.1562 197.523 30.8594C197.523 31.1172 197.535 31.375 197.559 31.6328C197.582 31.8906 197.629 32.1484 197.699 32.4062C197.582 32.6172 197.523 32.8867 197.523 33.2148C197.523 33.5898 197.582 33.9414 197.699 34.2695C197.84 34.5742 198.004 34.8789 198.191 35.1836C198.52 35.1836 198.848 35.1719 199.176 35.1484C199.504 35.125 199.844 35.1133 200.195 35.1133C200.523 35.1133 200.828 35.1484 201.109 35.2188C201.391 35.2656 201.684 35.3828 201.988 35.5703ZM239.746 15.8125C239.746 16.0234 239.652 16.1992 239.465 16.3398C239.301 16.4805 239.219 16.5859 239.219 16.6562C239.219 16.7969 239.242 16.9023 239.289 16.9727C239.336 17.0195 239.359 17.0781 239.359 17.1484V17.3242C239.125 17.5586 238.949 17.8164 238.832 18.0977C238.715 18.3555 238.621 18.6367 238.551 18.9414C238.48 19.2227 238.41 19.5156 238.34 19.8203C238.293 20.125 238.223 20.418 238.129 20.6992C238.012 20.9805 237.859 21.2266 237.672 21.4375C237.484 21.625 237.332 21.8477 237.215 22.1055C237.027 22.5273 236.887 22.9609 236.793 23.4062C236.699 23.8516 236.5 24.2617 236.195 24.6367V24.8125C236.172 24.9766 236.219 25.1172 236.336 25.2344C235.891 25.8203 235.539 26.5234 235.281 27.3438C235.023 28.1406 234.812 28.9844 234.648 29.875C234.484 30.7422 234.344 31.6211 234.227 32.5117C234.109 33.3789 233.969 34.1641 233.805 34.8672C233.922 35.3828 234.098 35.875 234.332 36.3438C234.59 36.7891 234.836 37.2578 235.07 37.75C235.539 37.8672 235.984 38.0312 236.406 38.2422C236.852 38.4531 237.168 38.793 237.355 39.2617C237.309 39.7305 237.156 40.0938 236.898 40.3516C236.641 40.6094 236.324 40.8789 235.949 41.1602C235.691 41.0664 235.48 40.9844 235.316 40.9141C235.152 40.8672 234.906 40.8672 234.578 40.9141C234.133 40.5625 233.711 40.2812 233.312 40.0703C232.938 39.8594 232.598 39.4961 232.293 38.9805C232.246 38.9102 232.176 38.875 232.082 38.875H231.766C231.648 38.5938 231.508 38.3008 231.344 37.9961C231.18 37.668 231.016 37.3398 230.852 37.0117C230.688 36.6602 230.547 36.3203 230.43 35.9922C230.312 35.6406 230.254 35.3242 230.254 35.043C230.254 33.8477 230.359 32.6641 230.57 31.4922C230.805 30.2969 230.922 29.0898 230.922 27.8711V27.5195C230.453 27.6367 229.984 27.8008 229.516 28.0117C229.07 28.2227 228.613 28.3867 228.145 28.5039C227.98 28.5508 227.887 28.6328 227.863 28.75C227.84 28.8672 227.77 28.9609 227.652 29.0312C227.418 29.0547 227.195 29.0781 226.984 29.1016C226.773 29.1016 226.574 29.1016 226.387 29.1016C225.988 29.1016 225.566 29.0898 225.121 29.0664C224.699 29.0195 224.277 28.9375 223.855 28.8203C223.434 28.7031 223.035 28.5391 222.66 28.3281C222.309 28.1172 221.992 27.8477 221.711 27.5195C221.664 27.543 221.605 27.5664 221.535 27.5898C221.465 27.6133 221.395 27.625 221.324 27.625C221.254 27.625 221.184 27.6133 221.113 27.5898C221.043 27.5664 220.984 27.543 220.938 27.5195C220.75 27.2617 220.598 26.9805 220.48 26.6758L220.129 25.7617C220.012 25.457 219.883 25.1641 219.742 24.8828C219.602 24.6016 219.414 24.3438 219.18 24.1094C219.109 23.6875 219.074 23.2773 219.074 22.8789C219.074 22.457 219.109 22.0469 219.18 21.6484C219.227 21.25 219.309 20.8516 219.426 20.4531C219.332 20.1719 219.273 19.8789 219.25 19.5742C219.203 19.2695 219.18 18.9648 219.18 18.6602C219.18 18.3086 219.215 17.9453 219.285 17.5703C219.355 17.1953 219.473 16.8555 219.637 16.5508C219.801 16.2227 220.035 15.9531 220.34 15.7422C220.621 15.5312 220.973 15.4258 221.395 15.4258C221.863 15.4258 222.297 15.5547 222.695 15.8125C223.094 16.0469 223.48 16.293 223.855 16.5508C223.902 16.832 223.938 17.1133 223.961 17.3945C223.984 17.6523 223.996 17.9336 223.996 18.2383C223.996 18.8008 223.961 19.375 223.891 19.9609C223.844 20.5234 223.82 21.0977 223.82 21.6836C223.82 22.293 223.891 22.8672 224.031 23.4062C224.195 23.9219 224.477 24.4141 224.875 24.8828H225.016C225.203 24.8594 225.367 24.8945 225.508 24.9883C225.648 25.082 225.812 25.1289 226 25.1289C226.164 25.1289 226.293 25.0703 226.387 24.9531C226.48 24.8125 226.598 24.7422 226.738 24.7422C226.879 24.7422 226.984 24.7656 227.055 24.8125C227.125 24.8594 227.184 24.8828 227.23 24.8828C227.488 24.8828 227.781 24.7891 228.109 24.6016C228.438 24.4141 228.648 24.2031 228.742 23.9688C228.836 24.0391 228.953 24.0742 229.094 24.0742C229.281 24.0742 229.457 24.0156 229.621 23.8984C229.785 23.7812 229.996 23.7227 230.254 23.7227C230.395 23.7227 230.441 23.6406 230.395 23.4766C230.371 23.2891 230.418 23.1719 230.535 23.125C230.816 23.0078 231.121 22.8438 231.449 22.6328C231.801 22.3984 232.082 22.2578 232.293 22.2109C232.41 21.9062 232.551 21.625 232.715 21.3672C232.902 21.0859 233.09 20.8281 233.277 20.5938C233.348 20.0547 233.488 19.5391 233.699 19.0469C233.91 18.5547 234.133 18.0625 234.367 17.5703C234.602 17.0781 234.824 16.5859 235.035 16.0938C235.246 15.6016 235.387 15.0859 235.457 14.5469C235.715 14.2891 235.914 14.0078 236.055 13.7031C236.219 13.3984 236.359 13.0937 236.477 12.7891C236.711 12.7188 237.004 12.6836 237.355 12.6836C237.707 12.6602 238.012 12.6484 238.27 12.6484H238.867C238.938 12.7891 239.031 12.918 239.148 13.0352L239.5 13.3867C239.289 13.7148 239.184 14.043 239.184 14.3711C239.184 14.6289 239.242 14.8867 239.359 15.1445C239.477 15.3789 239.605 15.6016 239.746 15.8125ZM41.1273 67.2891C41.1273 67.4297 41.057 67.5469 40.9164 67.6406C40.7992 67.7344 40.6586 67.8281 40.4945 67.9219C40.3539 68.0156 40.2016 68.1211 40.0375 68.2383C39.8969 68.3555 39.8031 68.4961 39.7563 68.6602H39.4398C39.2992 68.6602 39.2289 68.707 39.2289 68.8008H39.1234C38.9125 68.8008 38.7719 68.7422 38.7016 68.625C38.6313 68.4844 38.4789 68.4141 38.2445 68.4141C37.6586 68.4141 37.0727 68.4258 36.4867 68.4492C35.9242 68.4492 35.35 68.4609 34.7641 68.4844C33.1469 68.4844 31.5531 68.543 29.9828 68.6602C28.4359 68.7539 26.9008 69.082 25.3773 69.6445C25.3305 69.668 25.2719 69.6797 25.2016 69.6797C25.0844 69.6797 25.0141 69.6328 24.9906 69.5391C24.9906 69.4453 24.932 69.3984 24.8148 69.3984C24.4867 69.3984 24.182 69.4336 23.9008 69.5039C23.6195 69.5742 23.3148 69.6211 22.9867 69.6445C22.6117 69.9727 22.1781 70.2422 21.6859 70.4531C21.2172 70.6641 20.725 70.875 20.2094 71.0859C19.7172 71.2734 19.2367 71.4844 18.768 71.7188C18.2992 71.9297 17.8891 72.2109 17.5375 72.5625C17.5844 72.8438 17.6195 73.125 17.643 73.4062C17.6898 73.6641 17.7133 73.9219 17.7133 74.1797C17.7133 75.1875 17.6195 76.1836 17.432 77.168C17.2445 78.1289 17.1508 79.1016 17.1508 80.0859V80.6133C17.1508 80.7773 17.1625 80.9531 17.1859 81.1406C17.2328 81.2578 17.3148 81.3398 17.432 81.3867C17.5727 81.4102 17.6898 81.457 17.7836 81.5273C18.0883 81.3164 18.393 81.1523 18.6977 81.0352C19.0258 80.8945 19.3539 80.7656 19.682 80.6484C20.0336 80.5078 20.3617 80.3789 20.6664 80.2617C20.9945 80.1211 21.3109 79.957 21.6156 79.7695H22.6C22.8578 79.582 23.1625 79.4414 23.5141 79.3477C23.8656 79.2539 24.1 79.043 24.2172 78.7148C24.2641 78.7617 24.3109 78.7852 24.3578 78.7852H24.4984C24.7797 78.7852 25.0609 78.7266 25.3422 78.6094C25.6469 78.4922 25.9516 78.375 26.2563 78.2578C26.5609 78.1172 26.8656 77.9883 27.1703 77.8711C27.475 77.7539 27.7914 77.6953 28.1195 77.6953C28.1898 77.6953 28.2484 77.707 28.2953 77.7305C28.3656 77.7305 28.4359 77.7305 28.5063 77.7305C28.6469 77.4961 28.8461 77.3203 29.1039 77.2031C29.3617 77.0625 29.6313 76.9453 29.9125 76.8516C30.1938 76.7578 30.475 76.6641 30.7563 76.5703C31.0609 76.4766 31.3188 76.3594 31.5297 76.2188H31.6703C31.8109 76.2188 31.9164 76.2539 31.9867 76.3242C32.0805 76.3711 32.1859 76.418 32.3031 76.4648C32.9594 76.043 33.6273 75.832 34.307 75.832C35.0102 75.8086 35.7367 75.7617 36.4867 75.6914C36.6508 75.9727 36.7914 76.207 36.9086 76.3945C37.0492 76.5586 37.1195 76.8047 37.1195 77.1328C37.1195 77.2969 37.1078 77.4141 37.0844 77.4844C36.8266 77.5781 36.6273 77.6602 36.4867 77.7305L36.1 77.9414C35.9828 77.9883 35.8422 78.0352 35.6781 78.082C35.5141 78.1055 35.2797 78.1172 34.975 78.1172C34.7875 78.1172 34.7055 78.1758 34.7289 78.293C34.7523 78.3867 34.6938 78.4453 34.5531 78.4688C34.225 78.5859 33.8969 78.6797 33.5688 78.75C33.2406 78.8203 32.9125 78.9141 32.5844 79.0312C31.9047 79.2422 31.225 79.4766 30.5453 79.7344C29.8891 79.9688 29.2094 80.1562 28.5063 80.2969C27.9203 80.7656 27.2875 81.1523 26.6078 81.457C25.9281 81.7383 25.225 81.9727 24.4984 82.1602C23.725 82.7227 22.9633 83.25 22.2133 83.7422C21.4633 84.2109 20.6195 84.6094 19.682 84.9375C19.5648 85.0547 19.4242 85.1602 19.2602 85.2539C19.0961 85.3477 18.9906 85.4883 18.9438 85.6758C18.8969 85.6758 18.8383 85.6758 18.768 85.6758C18.7211 85.6523 18.6625 85.6406 18.5922 85.6406C18.2641 85.6406 18.0063 85.7227 17.8188 85.8867C17.6547 86.0273 17.4438 86.1211 17.1859 86.168C17.0688 86.5195 17.0102 86.8242 17.0102 87.082C17.0102 87.4102 17.0688 87.7031 17.1859 87.9609C17.3031 88.2188 17.4438 88.4648 17.6078 88.6992C17.7953 88.9336 17.9828 89.168 18.1703 89.4023C18.3813 89.6133 18.557 89.8477 18.6977 90.1055C18.6508 90.3867 18.557 90.6094 18.4164 90.7734C18.2992 90.9609 18.1586 91.125 17.9945 91.2656C17.8305 91.4297 17.6664 91.5938 17.5023 91.7578C17.3617 91.9219 17.2563 92.1328 17.1859 92.3906C16.7641 92.4609 16.3539 92.4961 15.9555 92.4961C15.6977 92.4961 15.4281 92.4609 15.1469 92.3906C14.8891 92.3438 14.643 92.25 14.4086 92.1094C14.0336 91.5938 13.7641 91.043 13.6 90.457C13.4594 89.8711 13.2602 89.2852 13.0023 88.6992L13.0375 88.4531C13.0375 87.9375 12.9438 87.4922 12.7563 87.1172C12.5922 86.7188 12.3344 86.3203 11.9828 85.9219C12.0063 85.875 12.018 85.793 12.018 85.6758C12.018 85.3711 11.9242 85.0898 11.7367 84.832C11.7836 84.293 11.9242 83.8711 12.1586 83.5664C12.4164 83.2617 12.6977 82.9219 13.0023 82.5469V82.125C13.0023 81.1172 13.0844 80.1328 13.2484 79.1719C13.4359 78.1875 13.5297 77.2031 13.5297 76.2188C13.5297 75.6094 13.4828 75.0703 13.3891 74.6016C13.3188 74.5781 13.225 74.5664 13.1078 74.5664C12.9906 74.5664 12.8969 74.6016 12.8266 74.6719C12.7563 74.7188 12.6977 74.7773 12.6508 74.8477C12.6039 74.918 12.5453 74.9883 12.475 75.0586C12.4281 75.1289 12.3461 75.1758 12.2289 75.1992C11.8305 75.1289 11.5727 74.9414 11.4555 74.6367C11.3383 74.332 11.2797 73.9922 11.2797 73.6172C11.2797 73.4062 11.2914 73.1953 11.3148 72.9844C11.3383 72.7734 11.3617 72.5508 11.3852 72.3164C12.2758 71.332 13.3422 70.418 14.5844 69.5742C15.8266 68.7305 17.057 68.0508 18.2758 67.5352C18.3461 67.5117 18.4281 67.5 18.5219 67.5C18.6156 67.5 18.6977 67.5234 18.768 67.5703C18.8383 67.5938 18.9203 67.6055 19.0141 67.6055C19.0844 67.6055 19.143 67.582 19.1898 67.5352C19.4242 67.5352 19.5883 67.4648 19.682 67.3242C19.7758 67.1836 19.9047 67.043 20.0688 66.9023C20.2328 67.0195 20.3734 67.0781 20.4906 67.0781C20.725 67.0781 20.9594 66.9727 21.1938 66.7617C21.4281 66.5508 21.6859 66.4219 21.9672 66.375C23.0453 66.1875 24.1 66.0352 25.1313 65.918C26.1859 65.8008 27.2289 65.5312 28.2602 65.1094C28.4945 65.2266 28.7289 65.2969 28.9633 65.3203C29.1977 65.3438 29.432 65.3555 29.6664 65.3555C29.9242 65.3555 30.2055 65.332 30.5102 65.2852C30.8383 65.2148 31.0961 65.0742 31.2836 64.8633C32.0336 64.957 32.8305 64.9922 33.6742 64.9688C34.5414 64.9453 35.3969 64.957 36.2406 65.0039C37.1078 65.0508 37.9398 65.168 38.7367 65.3555C39.5336 65.543 40.2367 65.8828 40.8461 66.375C40.893 66.5391 40.9516 66.6914 41.0219 66.832C41.0922 66.9727 41.1273 67.125 41.1273 67.2891ZM102.018 83.8828C101.971 84.2344 101.842 84.5039 101.631 84.6914C101.444 84.8789 101.221 85.0547 100.963 85.2188C100.846 85.1953 100.729 85.1836 100.612 85.1836C100.518 85.1602 100.413 85.1484 100.295 85.1484C99.5688 85.125 98.8773 85.2188 98.2211 85.4297C97.5883 85.6406 96.932 85.793 96.2523 85.8867C96.018 85.9336 95.7953 85.957 95.5844 85.957C95.3969 85.9336 95.1977 85.9453 94.9867 85.9922C94.2367 86.1094 93.4398 86.2031 92.5961 86.2734C91.7523 86.3438 90.9086 86.4375 90.0648 86.5547C89.2211 86.6484 88.3891 86.7773 87.5688 86.9414C86.7719 87.082 86.0219 87.293 85.3188 87.5742C85.2484 87.5273 85.1781 87.4805 85.1078 87.4336C85.0375 87.3633 84.9555 87.3281 84.8617 87.3281C84.6273 87.3281 84.4047 87.3633 84.1938 87.4336C83.9828 87.5039 83.7719 87.5273 83.5609 87.5039C83.3266 87.6445 83.0688 87.75 82.7875 87.8203C82.5297 87.8672 82.2602 87.9141 81.9789 87.9609C81.7211 87.9844 81.4633 88.0312 81.2055 88.1016C80.9477 88.1719 80.7016 88.3008 80.4672 88.4883C80.2797 88.3945 80.0453 88.3477 79.7641 88.3477C79.5063 88.3242 79.3305 88.2305 79.2367 88.0664C78.6977 88.3242 78.1234 88.4883 77.5141 88.5586C76.9281 88.6289 76.3305 88.6523 75.7211 88.6289C75.3227 88.6055 74.8656 88.5469 74.35 88.4531C73.8344 88.3594 73.3188 88.2305 72.8031 88.0664C72.2875 87.8789 71.807 87.668 71.3617 87.4336C70.9164 87.1758 70.5766 86.8711 70.3422 86.5195C70.1781 86.2852 70.0609 86.0273 69.9906 85.7461C69.9203 85.4648 69.7563 85.2539 69.4984 85.1133C69.5688 84.5742 69.6508 84.0469 69.7445 83.5312C69.8383 83.0156 69.932 82.4883 70.0258 81.9492C70.4945 81.5508 70.9398 81.1289 71.3617 80.6836C71.7836 80.2383 72.182 79.7695 72.557 79.2773C73.0023 79.0664 73.4125 78.8086 73.7875 78.5039C74.1859 78.1992 74.5727 77.8945 74.9477 77.5898C75.3461 77.2617 75.7328 76.9453 76.1078 76.6406C76.5063 76.3359 76.9281 76.0664 77.3734 75.832C77.4438 75.668 77.5375 75.5391 77.6547 75.4453C77.7953 75.3281 77.9359 75.2227 78.0766 75.1289C78.2172 75.0117 78.3461 74.8945 78.4633 74.7773C78.5805 74.6367 78.6625 74.4727 78.7094 74.2852C79.5297 73.793 80.2445 73.1719 80.8539 72.4219C81.4633 71.6719 81.8617 70.8281 82.0492 69.8906C81.6508 69.5625 81.1938 69.3516 80.6781 69.2578C80.1859 69.1406 79.6703 69.0586 79.1313 69.0117C78.6625 68.9883 78.1703 68.9883 77.6547 69.0117C77.1625 69.0352 76.6586 69.0234 76.143 68.9766C75.6273 69.1406 75.0883 69.2461 74.5258 69.293C73.9867 69.3398 73.4477 69.3867 72.9086 69.4336C72.3695 69.457 71.8305 69.5273 71.2914 69.6445C70.7758 69.7383 70.2719 69.9258 69.7797 70.207C69.6859 70.207 69.5922 70.1953 69.4984 70.1719C69.4281 70.1484 69.3461 70.1367 69.2523 70.1367C68.5023 70.1133 67.7992 70.2656 67.143 70.5938C66.4867 70.8984 65.8422 71.2031 65.2094 71.5078C65.1625 71.6016 65.1391 71.6719 65.1391 71.7188C65.1391 71.8594 65.1625 72 65.2094 72.1406C65.2797 72.2578 65.3148 72.3867 65.3148 72.5273C65.2914 72.5508 65.2797 72.5742 65.2797 72.5977C65.2797 72.6211 65.268 72.6445 65.2445 72.668C65.2211 72.7852 65.1859 72.8906 65.1391 72.9844C65.1156 73.0781 65.0805 73.1836 65.0336 73.3008C64.7758 74.0508 64.6352 74.7891 64.6117 75.5156C64.5883 76.125 64.5883 76.7227 64.6117 77.3086C64.6352 77.8945 64.6352 78.4922 64.6117 79.1016C64.5648 79.8516 64.4477 80.5547 64.2602 81.2109C64.3773 81.7734 64.4828 82.3711 64.5766 83.0039C64.6703 83.6133 64.7875 84.2227 64.9281 84.832C65.0688 85.4414 65.2328 86.0391 65.4203 86.625C65.6313 87.1875 65.9008 87.7266 66.2289 88.2422C66.2055 88.2891 66.2172 88.3242 66.2641 88.3477C66.3109 88.3711 66.3578 88.3828 66.4047 88.3828H66.6859C66.8031 88.3828 66.85 88.4297 66.8266 88.5234C66.8734 88.5938 66.9086 88.6641 66.932 88.7344C66.9555 88.7812 67.0023 88.8281 67.0727 88.875C67.1195 88.9453 67.1195 89.0391 67.0727 89.1562C67.0492 89.625 66.932 90.0586 66.7211 90.457C66.5102 90.8555 66.3813 91.2891 66.3344 91.7578C66.0531 91.8281 65.7953 91.8633 65.5609 91.8633C65.1625 91.8398 64.8109 91.7227 64.5063 91.5117C64.2016 91.3242 63.9203 91.0898 63.6625 90.8086C63.4047 90.5273 63.1586 90.2461 62.9242 89.9648C62.6898 89.6602 62.432 89.4023 62.1508 89.1914C61.9867 88.5352 61.8227 87.8086 61.6586 87.0117C61.518 86.2148 61.2719 85.5352 60.9203 84.9727C61.0141 84.7617 61.0609 84.5039 61.0609 84.1992C61.0844 83.7305 61.0375 83.2734 60.9203 82.8281C60.8266 82.3594 60.8031 81.8906 60.85 81.4219C60.85 81.1641 60.8734 80.9062 60.9203 80.6484C60.9906 80.3906 61.0375 80.1328 61.0609 79.875C61.0844 79.4766 61.0375 79.0898 60.9203 78.7148C60.8266 78.3398 60.7914 77.9531 60.8148 77.5547C60.8383 77.3672 60.8734 77.1914 60.9203 77.0273C60.9906 76.8398 61.0844 76.6758 61.2016 76.5352C61.0844 76.2539 61.0492 75.9844 61.0961 75.7266C61.1195 75.3281 61.1664 74.9531 61.2367 74.6016C61.307 74.25 61.3539 73.8984 61.3773 73.5469C61.3773 73.3594 61.3656 73.1836 61.3422 73.0195C61.3188 72.832 61.2836 72.6562 61.2367 72.4922L60.9203 72.3867C60.7797 72.3867 60.6391 72.4219 60.4984 72.4922C60.3813 72.5625 60.2758 72.6445 60.182 72.7383C60.0883 72.832 60.0063 72.9141 59.9359 72.9844C59.8656 73.0312 59.7953 73.0547 59.725 73.0547C59.6781 73.0547 59.6195 73.0547 59.5492 73.0547C59.5023 73.0312 59.4555 73.0195 59.4086 73.0195C59.3617 73.0195 59.268 73.0664 59.1273 73.1602C59.0102 73.2539 58.8578 73.3594 58.6703 73.4766C58.5063 73.5703 58.3422 73.6758 58.1781 73.793C58.0141 73.8867 57.8852 73.9453 57.7914 73.9688C57.5336 73.9219 57.3227 73.8398 57.1586 73.7227C57.018 73.582 56.8773 73.4531 56.7367 73.3359C56.6195 73.1953 56.4906 73.0781 56.35 72.9844C56.2094 72.8672 56.0336 72.8203 55.8227 72.8438C55.7523 72.7031 55.7172 72.5508 55.7172 72.3867C55.6938 72.2227 55.6938 72.0586 55.7172 71.8945V71.332C55.8813 71.0273 56.1039 70.7812 56.3852 70.5938C56.643 70.3828 56.9242 70.207 57.2289 70.0664L58.143 69.6445C58.4477 69.5039 58.7289 69.3281 58.9867 69.1172H59.3031C59.725 69.1406 60.0883 69.0586 60.393 68.8711C60.7211 68.6836 61.0258 68.4727 61.307 68.2383C61.5883 67.9805 61.8695 67.7227 62.1508 67.4648C62.4555 67.207 62.7836 67.0078 63.1352 66.8672C63.393 66.9844 63.6625 67.0898 63.9438 67.1836C64.225 67.2539 64.518 67.3008 64.8227 67.3242C65.1273 67.3242 65.4438 67.2773 65.7719 67.1836C66.1 67.0898 66.3578 66.9141 66.5453 66.6562C66.6625 66.7031 66.7563 66.7383 66.8266 66.7617C66.9203 66.7617 67.0258 66.7617 67.143 66.7617C67.4945 66.7852 67.8461 66.7383 68.1977 66.6211C68.5492 66.4805 68.8891 66.3164 69.2172 66.1289C69.6859 66.1523 70.143 66.1289 70.5883 66.0586C71.057 65.9648 71.5141 65.8711 71.9594 65.7773C72.4281 65.6836 72.8852 65.6016 73.3305 65.5312C73.7992 65.4375 74.268 65.4023 74.7367 65.4258C75.5102 65.4492 76.2719 65.3789 77.0219 65.2148C77.7719 65.0508 78.5336 64.9922 79.307 65.0391C79.8461 65.0625 80.3734 65.1094 80.8891 65.1797C81.4281 65.2266 81.9672 65.2383 82.5063 65.2148C82.8109 65.3555 83.0805 65.4844 83.3148 65.6016C83.5727 65.6953 83.8891 65.7188 84.2641 65.6719C85.0141 66.3047 85.6938 67.043 86.3031 67.8867V68.4844C86.2797 69.0234 86.1859 69.5508 86.0219 70.0664C85.8578 70.582 85.6586 71.0977 85.4242 71.6133C85.2133 72.1055 84.9789 72.5977 84.7211 73.0898C84.4633 73.5586 84.2172 74.0273 83.9828 74.4961C82.4594 75.8789 80.9359 77.25 79.4125 78.6094C77.8891 79.9688 76.3188 81.2812 74.7016 82.5469C74.6547 82.7812 74.5844 82.9922 74.4906 83.1797C74.4203 83.3672 74.3734 83.5664 74.35 83.7773C74.35 83.8945 74.3617 83.9883 74.3852 84.0586C74.5492 84.1055 74.6898 84.1992 74.807 84.3398C74.9477 84.457 74.9945 84.6211 74.9477 84.832H75.2641C75.3813 84.832 75.4398 84.8789 75.4398 84.9727L76.0023 85.0078C76.893 85.0547 77.7836 85.0312 78.6742 84.9375C79.5648 84.8438 80.4555 84.7383 81.3461 84.6211C82.2602 84.5039 83.1625 84.3984 84.0531 84.3047C84.9438 84.1875 85.8344 84.1172 86.725 84.0938C86.9359 84.0234 87.1586 83.9648 87.393 83.918C87.6273 83.8711 87.8383 83.7773 88.0258 83.6367H88.1313C88.2953 83.6367 88.4125 83.6836 88.4828 83.7773C88.5766 83.8711 88.7055 83.9297 88.8695 83.9531C88.9867 83.9531 89.1039 83.9297 89.2211 83.8828C89.3617 83.8359 89.5023 83.8008 89.643 83.7773C89.9711 83.6836 90.3109 83.625 90.6625 83.6016C91.0375 83.5781 91.4008 83.543 91.7523 83.4961C93.1117 83.3789 94.4594 83.3086 95.7953 83.2852C97.1313 83.2383 98.4672 83.0625 99.8031 82.7578C99.9203 82.9219 100.084 83.0391 100.295 83.1094C100.506 83.1562 100.729 83.2148 100.963 83.2852C101.198 83.332 101.409 83.3906 101.596 83.4609C101.807 83.5312 101.948 83.6719 102.018 83.8828ZM128.427 85.1836C128.31 85.3711 128.17 85.5469 128.005 85.7109C127.841 85.8516 127.689 86.0039 127.548 86.168C127.384 86.2383 127.197 86.2734 126.986 86.2734C126.798 86.2734 126.611 86.2734 126.423 86.2734C126.259 86.25 126.095 86.25 125.931 86.2734C125.791 86.2734 125.673 86.3203 125.58 86.4141C125.392 86.3672 125.252 86.2852 125.158 86.168C125.064 86.0273 124.9 85.9453 124.666 85.9219C124.572 85.8984 124.478 85.8984 124.384 85.9219C124.033 85.5234 123.705 85.1016 123.4 84.6562C123.119 84.2109 122.849 83.7891 122.591 83.3906C122.568 82.5234 122.498 81.6445 122.38 80.7539C122.357 80.543 122.322 80.332 122.275 80.1211C122.228 79.9102 122.193 79.7109 122.17 79.5234C122.17 79.2891 122.181 79.0664 122.205 78.8555C122.252 78.6211 122.287 78.4102 122.31 78.2227C122.404 77.543 122.509 76.875 122.627 76.2188C122.744 75.5625 122.849 74.8945 122.943 74.2148C123.037 73.6055 123.084 72.9727 123.084 72.3164C123.084 71.6367 122.978 71.0039 122.767 70.418L122.732 70.2422C122.779 70.0547 122.826 69.9023 122.873 69.7852C122.943 69.6445 122.99 69.4922 123.013 69.3281C123.06 69.0703 123.002 68.8828 122.838 68.7656C122.908 68.5781 123.025 68.4609 123.189 68.4141C123.353 68.3438 123.447 68.2031 123.47 67.9922C123.494 67.8984 123.494 67.8047 123.47 67.7109C123.658 67.6406 123.845 67.582 124.033 67.5352C124.244 67.4648 124.443 67.4531 124.63 67.5C124.935 67.5469 125.205 67.6523 125.439 67.8164C125.673 67.957 125.896 68.1211 126.107 68.3086C126.482 69.4336 126.634 70.6289 126.564 71.8945C126.494 73.1367 126.377 74.3906 126.213 75.6562C126.048 76.9219 125.943 78.1641 125.896 79.3828C125.849 80.5781 126.037 81.6914 126.459 82.7227L126.529 82.7578C126.646 82.7812 126.74 82.7461 126.81 82.6523C126.88 82.5352 126.974 82.4883 127.091 82.5117C127.185 82.5586 127.244 82.582 127.267 82.582C127.361 83.0508 127.513 83.4961 127.724 83.918C127.935 84.3398 128.17 84.7617 128.427 85.1836ZM172.021 67.6406V67.7812C171.857 67.8281 171.775 67.9453 171.775 68.1328C171.517 68.25 171.248 68.3438 170.966 68.4141C170.685 68.4609 170.416 68.543 170.158 68.6602C169.9 68.6367 169.63 68.625 169.349 68.625C169.091 68.6016 168.834 68.5898 168.576 68.5898C167.873 68.5898 167.17 68.6133 166.466 68.6602C165.763 68.707 165.06 68.707 164.357 68.6602C164.029 68.8477 163.666 69 163.267 69.1172C162.892 69.2109 162.529 69.2578 162.177 69.2578C161.896 69.2578 161.65 69.2227 161.439 69.1523C160.877 69.4336 160.255 69.668 159.576 69.8555C158.92 70.043 158.252 70.2305 157.572 70.418C156.892 70.582 156.236 70.7812 155.603 71.0156C154.994 71.2266 154.455 71.5312 153.986 71.9297C153.939 72.2578 153.904 72.5859 153.88 72.9141C153.857 73.2188 153.845 73.5234 153.845 73.8281C153.845 74.1562 153.857 74.4609 153.88 74.7422C153.927 75.0234 154.009 75.3047 154.127 75.5859C154.244 75.6328 154.373 75.668 154.513 75.6914C154.677 75.7148 154.818 75.7266 154.935 75.7266C155.052 75.7266 155.17 75.7148 155.287 75.6914C155.404 75.6445 155.486 75.5625 155.533 75.4453C155.884 75.3984 156.236 75.3867 156.588 75.4102C156.939 75.4102 157.291 75.4102 157.642 75.4102C157.994 75.4102 158.334 75.3984 158.662 75.375C159.013 75.3516 159.353 75.293 159.681 75.1992C160.056 75.1055 160.42 75.0469 160.771 75.0234C161.146 75 161.509 74.9766 161.861 74.9531C162.213 74.9297 162.576 74.8945 162.951 74.8477C163.326 74.7773 163.713 74.6484 164.111 74.4609C164.416 74.5781 164.72 74.6367 165.025 74.6367C165.353 74.6367 165.67 74.6602 165.974 74.707C166.138 74.8242 166.267 74.9531 166.361 75.0938C166.478 75.2344 166.537 75.3984 166.537 75.5859C166.537 75.9141 166.42 76.2422 166.185 76.5703C165.951 76.8984 165.763 77.2031 165.623 77.4844H165.236C164.673 77.4844 164.123 77.5664 163.584 77.7305C163.068 77.8711 162.541 78.0469 162.002 78.2578C161.486 78.4453 160.959 78.6211 160.42 78.7852C159.904 78.9258 159.365 78.9961 158.802 78.9961C158.709 78.9961 158.65 79.0547 158.627 79.1719C158.627 79.2656 158.603 79.3359 158.556 79.3828C158.439 79.3594 158.263 79.3477 158.029 79.3477C157.49 79.3477 156.974 79.4062 156.482 79.5234C155.99 79.6406 155.486 79.6992 154.97 79.6992C154.83 79.6992 154.689 79.6992 154.548 79.6992C154.408 79.6758 154.267 79.6523 154.127 79.6289C154.009 79.8164 153.857 79.9453 153.67 80.0156C153.482 80.0625 153.306 80.1562 153.142 80.2969C153.072 80.5078 153.025 80.7656 153.002 81.0703C153.002 81.375 152.99 81.6914 152.966 82.0195C152.966 82.3242 152.943 82.6172 152.896 82.8984C152.849 83.1797 152.755 83.4023 152.615 83.5664C152.638 83.6836 152.732 83.7305 152.896 83.707C153.06 83.6602 153.142 83.7305 153.142 83.918C153.142 84.1289 153.119 84.3516 153.072 84.5859C153.025 84.8203 153.002 85.0547 153.002 85.2891C153.002 85.7344 153.048 86.2266 153.142 86.7656C153.259 87.2812 153.423 87.7617 153.634 88.207C153.869 88.6523 154.173 89.0273 154.548 89.332C154.923 89.6133 155.392 89.7539 155.955 89.7539C156.33 89.7539 156.681 89.6836 157.009 89.543C157.338 89.4023 157.607 89.168 157.818 88.8398L157.994 88.8047C158.088 88.8047 158.17 88.8164 158.24 88.8398C158.334 88.8633 158.427 88.875 158.521 88.875C158.662 88.875 158.838 88.793 159.048 88.6289C159.283 88.4414 159.529 88.2305 159.787 87.9961C160.068 87.7617 160.349 87.5391 160.63 87.3281C160.912 87.0938 161.181 86.9297 161.439 86.8359C161.603 86.5078 161.755 86.1797 161.896 85.8516C162.06 85.5234 162.295 85.2656 162.599 85.0781V84.0586C162.834 83.8008 163.08 83.5664 163.338 83.3555C163.619 83.1445 163.83 82.875 163.97 82.5469C164.088 82.5938 164.193 82.6289 164.287 82.6523C164.404 82.6758 164.521 82.6875 164.638 82.6875C164.755 82.6875 164.873 82.6758 164.99 82.6523C165.13 82.6289 165.259 82.5938 165.377 82.5469C165.564 82.8047 165.705 83.0977 165.798 83.4258C165.916 83.7305 166.056 84.0234 166.22 84.3047C166.009 84.7266 165.763 85.2305 165.482 85.8164C165.201 86.4023 164.896 86.9883 164.568 87.5742C164.24 88.1602 163.888 88.7227 163.513 89.2617C163.162 89.7773 162.81 90.1758 162.459 90.457C162.388 90.5273 162.236 90.6094 162.002 90.7031C161.744 90.8906 161.509 91.0664 161.298 91.2305C161.088 91.418 160.888 91.6289 160.701 91.8633C160.021 92.0742 159.365 92.3555 158.732 92.707C158.123 93.0586 157.513 93.3984 156.904 93.7266C156.623 93.6562 156.318 93.6211 155.99 93.6211C155.709 93.6211 155.427 93.6328 155.146 93.6562C154.865 93.7031 154.56 93.7266 154.232 93.7266C154.138 93.6094 153.998 93.5273 153.81 93.4805C153.646 93.457 153.588 93.3398 153.634 93.1289C152.838 93.082 152.193 92.8594 151.701 92.4609C151.209 92.0859 150.787 91.6172 150.435 91.0547C150.107 90.4922 149.838 89.8828 149.627 89.2266C149.416 88.5703 149.193 87.9375 148.959 87.3281V87.2227C148.959 87.1055 149.005 87.0352 149.099 87.0117C149.193 86.9883 149.24 86.918 149.24 86.8008C149.24 86.7539 149.228 86.7188 149.205 86.6953C149.134 86.4375 149.076 86.2148 149.029 86.0273C148.982 85.8398 148.959 85.6172 148.959 85.3594C148.959 84.9844 148.982 84.6211 149.029 84.2695C149.076 83.8945 149.099 83.5195 149.099 83.1445C149.099 82.7695 149.052 82.4414 148.959 82.1602C149.052 82.043 149.134 81.8906 149.205 81.7031C149.252 81.4922 149.287 81.2812 149.31 81.0703C149.334 80.8594 149.345 80.6484 149.345 80.4375C149.369 80.2266 149.404 80.0391 149.451 79.875C149.357 79.6172 149.275 79.3945 149.205 79.207C149.134 78.9961 149.099 78.75 149.099 78.4688V78.2227C149.334 77.8242 149.533 77.4141 149.697 76.9922C149.861 76.5703 150.037 76.1367 150.224 75.6914V75.5859C150.224 74.9062 150.201 74.2266 150.154 73.5469C150.107 72.8672 150.084 72.1875 150.084 71.5078V70.8398C150.084 70.6055 150.095 70.3828 150.119 70.1719C150.306 70.0781 150.447 69.9492 150.541 69.7852C150.634 69.6211 150.775 69.4922 150.963 69.3984H152.123L152.334 69.0469C152.404 68.9297 152.451 68.8008 152.474 68.6602C152.732 68.5898 152.978 68.4961 153.213 68.3789C153.47 68.2383 153.705 68.0977 153.916 67.957C154.244 67.7695 154.537 67.6055 154.795 67.4648C155.076 67.3008 155.345 67.1719 155.603 67.0781C155.884 66.9609 156.177 66.8672 156.482 66.7969C156.787 66.7266 157.138 66.668 157.537 66.6211C157.724 66.6211 157.841 66.5859 157.888 66.5156C157.959 66.4453 158.052 66.3633 158.17 66.2695C158.451 66.3164 158.732 66.3633 159.013 66.4102C159.295 66.4336 159.576 66.4453 159.857 66.4453C160.42 66.4453 160.947 66.3398 161.439 66.1289C162.142 66.1289 162.834 66.1172 163.513 66.0938C164.216 66.0703 164.92 66.0586 165.623 66.0586C166.232 66.0586 166.841 66.082 167.451 66.1289C168.06 66.1758 168.658 66.2578 169.244 66.375C169.455 66.3047 169.689 66.2695 169.947 66.2695C170.228 66.2695 170.509 66.3047 170.791 66.375C171.095 66.4219 171.388 66.4219 171.67 66.375C171.693 66.6328 171.752 66.8555 171.845 67.043C171.963 67.207 172.021 67.4062 172.021 67.6406ZM211.466 66.9023C211.42 67.1836 211.349 67.4297 211.255 67.6406C211.185 67.8281 211.173 68.0859 211.22 68.4141C210.986 68.4375 210.798 68.5195 210.658 68.6602C210.541 68.7773 210.435 68.918 210.341 69.082C210.271 69.2461 210.189 69.4219 210.095 69.6094C210.025 69.7734 209.931 69.9258 209.814 70.0664C210.002 70.9102 210.107 71.7656 210.13 72.6328C210.154 73.5 210.213 74.3555 210.306 75.1992C210.423 76.2773 210.599 77.3438 210.834 78.3984C211.091 79.4297 211.22 80.4844 211.22 81.5625C211.22 81.8906 211.209 82.1953 211.185 82.4766C211.185 82.7578 211.185 83.0508 211.185 83.3555C211.185 83.543 211.185 83.7422 211.185 83.9531C211.209 84.1406 211.22 84.3281 211.22 84.5156C211.22 85.1953 211.127 85.875 210.939 86.5547C210.775 87.2344 210.646 87.9141 210.552 88.5938C210.271 88.8516 210.025 89.1328 209.814 89.4375C209.627 89.7422 209.427 90.0234 209.216 90.2812C209.005 90.5391 208.759 90.7617 208.478 90.9492C208.197 91.1602 207.845 91.3008 207.423 91.3711C207.353 91.6055 207.213 91.7812 207.002 91.8984C206.814 92.0156 206.65 92.1797 206.509 92.3906H206.439C205.853 92.3906 205.349 92.3086 204.927 92.1445C204.505 91.9805 204.107 91.793 203.732 91.582C203.38 91.3711 203.017 91.1484 202.642 90.9141C202.267 90.6797 201.834 90.4922 201.341 90.3516C200.685 89.8125 200.088 89.2266 199.548 88.5938C199.009 87.9375 198.4 87.3516 197.72 86.8359C197.556 86.3672 197.334 85.9805 197.052 85.6758C196.795 85.3711 196.537 85.0195 196.279 84.6211C196.162 84.457 196.068 84.3047 195.998 84.1641C195.951 84.0234 195.88 83.8594 195.787 83.6719C195.716 83.4844 195.599 83.3555 195.435 83.2852C195.295 83.2148 195.166 83.1328 195.048 83.0391C194.861 82.3125 194.591 81.6445 194.24 81.0352C193.888 80.4258 193.478 79.8398 193.009 79.2773C192.869 79.5352 192.752 79.8164 192.658 80.1211C192.588 80.4023 192.517 80.6953 192.447 81C192.377 81.2812 192.283 81.5742 192.166 81.8789C192.072 82.1602 191.943 82.418 191.779 82.6523V82.7578C191.779 82.875 191.826 82.9453 191.92 82.9688C192.013 82.9922 192.06 83.0625 192.06 83.1797C192.06 83.2031 192.048 83.2266 192.025 83.25C192.025 83.2734 192.025 83.2969 192.025 83.3203C191.908 83.4141 191.814 83.5312 191.744 83.6719C191.697 83.8125 191.58 83.8945 191.392 83.918C191.416 84.0352 191.427 84.1523 191.427 84.2695V84.5859C191.427 85.2656 191.345 85.9453 191.181 86.625C191.041 87.3047 190.97 87.9961 190.97 88.6992V89.1562C190.97 89.3203 190.982 89.4727 191.005 89.6133C191.052 89.7539 191.123 89.8945 191.216 90.0352C191.31 90.1758 191.357 90.3047 191.357 90.4219C191.357 90.5859 191.287 90.7383 191.146 90.8789C191.31 90.9961 191.498 91.125 191.709 91.2656C191.92 91.4062 192.107 91.5586 192.271 91.7227C192.459 91.9102 192.611 92.0977 192.728 92.2852C192.845 92.4961 192.904 92.7188 192.904 92.9531C192.904 93.3516 192.775 93.6328 192.517 93.7969C192.259 93.9609 191.943 94.0898 191.568 94.1836C191.216 94.2773 190.841 94.3594 190.443 94.4297C190.068 94.5234 189.752 94.6758 189.494 94.8867H189.388C189.107 94.8867 188.896 94.8047 188.755 94.6406C188.615 94.4766 188.404 94.3945 188.123 94.3945C187.677 93.668 187.373 92.8477 187.209 91.9336C187.045 91.043 186.963 90.1875 186.963 89.3672C186.963 88.3594 187.056 87.3516 187.244 86.3438C187.408 85.3359 187.619 84.3398 187.877 83.3555C188.111 82.3711 188.369 81.3984 188.65 80.4375C188.955 79.4531 189.236 78.4688 189.494 77.4844L189.529 77.3789C189.529 77.2617 189.494 77.1797 189.423 77.1328C189.377 77.0859 189.353 77.0156 189.353 76.9219C189.353 76.875 189.365 76.8516 189.388 76.8516C189.459 76.6172 189.529 76.3945 189.599 76.1836C189.693 75.9727 189.763 75.7383 189.81 75.4805C189.951 74.8242 190.045 74.1562 190.091 73.4766C190.162 72.7734 190.197 72.082 190.197 71.4023C190.22 70.7227 190.244 70.043 190.267 69.3633C190.314 68.6602 190.396 67.9688 190.513 67.2891C190.701 67.1016 190.877 66.9023 191.041 66.6914C191.205 66.4805 191.416 66.293 191.673 66.1289C192.142 66.1523 192.611 66.2227 193.08 66.3398C193.548 66.457 193.994 66.6445 194.416 66.9023C194.697 67.9102 194.884 68.918 194.978 69.9258C195.095 70.9336 195.283 71.9414 195.541 72.9492V73.0547C195.541 73.1719 195.599 73.2305 195.716 73.2305C195.857 73.207 195.963 73.2422 196.033 73.3359C195.986 73.4062 195.951 73.4883 195.927 73.582C195.927 73.6758 195.927 73.7695 195.927 73.8633V74.4609C195.974 74.6484 196.033 74.8477 196.103 75.0586C196.173 75.2695 196.326 75.3984 196.56 75.4453C196.677 76.1953 196.853 76.8867 197.088 77.5195C197.322 78.1523 197.591 78.7617 197.896 79.3477C198.201 79.9336 198.529 80.5195 198.88 81.1055C199.232 81.668 199.595 82.2656 199.97 82.8984C200.556 83.3438 201.06 83.8594 201.482 84.4453C201.904 85.0078 202.326 85.5586 202.748 86.0977C203.193 86.6133 203.685 87.0703 204.224 87.4688C204.787 87.8672 205.513 88.1133 206.404 88.207C206.521 88.1133 206.603 87.9844 206.65 87.8203L206.826 87.3281C206.896 87.1641 206.966 87.0234 207.037 86.9062C207.13 86.7656 207.259 86.6602 207.423 86.5898C207.47 85.9336 207.517 85.2656 207.564 84.5859C207.634 83.9062 207.787 83.2617 208.021 82.6523C207.904 82.4414 207.845 82.1836 207.845 81.8789C207.845 81.6445 207.857 81.4219 207.88 81.2109C207.927 81 207.951 80.7891 207.951 80.5781C207.951 80.1328 207.857 79.7695 207.67 79.4883C207.67 79.3242 207.681 79.1602 207.705 78.9961C207.728 78.8086 207.798 78.6328 207.916 78.4688C207.728 78 207.576 77.5078 207.459 76.9922C207.365 76.4766 207.318 75.9492 207.318 75.4102C207.318 75.1055 207.353 74.7891 207.423 74.4609C207.283 74.1094 207.189 73.6992 207.142 73.2305L207.002 71.7891C206.955 71.2969 206.884 70.8398 206.791 70.418C206.697 69.9961 206.521 69.6562 206.263 69.3984C206.404 69.1875 206.474 68.9414 206.474 68.6602C206.474 68.1914 206.404 67.7461 206.263 67.3242C206.123 66.9023 206.052 66.457 206.052 65.9883C206.052 65.6602 206.123 65.332 206.263 65.0039C206.779 65.0273 207.283 65.0859 207.775 65.1797C208.291 65.25 208.795 65.2852 209.287 65.2852C209.427 65.4727 209.591 65.625 209.779 65.7422C209.966 65.8594 210.166 65.9766 210.377 66.0938C210.588 66.1875 210.787 66.293 210.974 66.4102C211.185 66.5273 211.349 66.6914 211.466 66.9023ZM256.607 72.668C256.607 72.9023 256.525 73.0547 256.361 73.125C256.197 73.1953 256.115 73.3359 256.115 73.5469C256.115 73.6172 256.138 73.6758 256.185 73.7227C256.232 73.7695 256.255 73.8398 256.255 73.9336V74.0742C255.974 75.4336 255.564 76.6172 255.025 77.625C254.509 78.6328 253.9 79.5586 253.197 80.4023C252.494 81.2461 251.697 82.043 250.806 82.793C249.939 83.543 249.002 84.3281 247.994 85.1484C247.713 85.3828 247.42 85.6172 247.115 85.8516C246.834 86.0859 246.564 86.332 246.306 86.5898L245.533 87.3281C245.509 87.3516 245.38 87.4102 245.146 87.5039C244.912 87.5742 244.771 87.6211 244.724 87.6445C244.396 87.7852 244.045 87.9492 243.67 88.1367C243.318 88.3242 243.013 88.5586 242.755 88.8398C242.287 88.8398 241.888 88.9102 241.56 89.0508C241.232 89.1914 240.869 89.3789 240.47 89.6133C240.353 89.6133 240.248 89.5898 240.154 89.543C240.084 89.4961 240.002 89.4492 239.908 89.4023C239.814 89.3555 239.709 89.332 239.591 89.332C239.498 89.3086 239.369 89.3203 239.205 89.3672C238.923 88.8984 238.619 88.5 238.291 88.1719C237.963 87.8438 237.517 87.6445 236.955 87.5742C236.884 87.1758 236.72 86.8711 236.463 86.6602C236.205 86.4258 235.947 86.1797 235.689 85.9219C235.642 85.7812 235.607 85.6172 235.584 85.4297C235.56 85.2422 235.513 85.0664 235.443 84.9023C235.373 84.7383 235.279 84.5977 235.162 84.4805C235.045 84.3633 234.88 84.3047 234.67 84.3047C234.646 84.1641 234.705 84.0938 234.845 84.0938C234.986 84.0938 235.056 84.0352 235.056 83.918C235.056 83.7773 235.033 83.6367 234.986 83.4961C234.939 83.3555 234.916 83.2031 234.916 83.0391C234.916 82.9219 234.927 82.8164 234.951 82.7227C234.974 82.6289 235.009 82.5234 235.056 82.4062C234.986 81.7734 234.951 81.1289 234.951 80.4727C234.951 79.207 235.033 77.9648 235.197 76.7461C235.384 75.5039 235.478 74.25 235.478 72.9844C235.478 72.4219 235.443 71.8594 235.373 71.2969C235.326 70.7344 235.22 70.1836 235.056 69.6445C234.517 69.7617 233.978 69.9023 233.439 70.0664C232.9 70.207 232.396 70.4062 231.927 70.6641C231.67 70.5 231.4 70.4062 231.119 70.3828C230.814 70.3359 230.521 70.2656 230.24 70.1719C230.076 69.8438 229.994 69.5039 229.994 69.1523C229.994 68.8242 230.052 68.5078 230.17 68.2031L230.521 67.2891C231.084 67.1719 231.646 66.9961 232.209 66.7617C232.748 66.5273 233.298 66.3164 233.861 66.1289C234.048 66.082 234.283 66.0234 234.564 65.9531C234.869 65.8828 235.08 65.8242 235.197 65.7773C235.361 65.707 235.466 65.5781 235.513 65.3906C235.584 65.1797 235.677 65.0039 235.795 64.8633H236.392C236.533 64.8633 236.685 64.875 236.849 64.8984C237.013 64.8984 237.166 64.9336 237.306 65.0039C238.15 64.793 238.994 64.6641 239.838 64.6172C240.681 64.5469 241.548 64.4531 242.439 64.3359C242.533 64.3359 242.673 64.3242 242.861 64.3008L243.459 64.1953C243.67 64.1484 243.857 64.1133 244.021 64.0898C244.209 64.043 244.338 64.0195 244.408 64.0195C244.478 64.0195 244.513 64.0547 244.513 64.125H245.111C246.119 64.125 247.103 64.2539 248.064 64.5117L250.947 65.2852C251.345 65.6133 251.744 65.9297 252.142 66.2344C252.541 66.5391 252.986 66.8086 253.478 67.043C253.595 67.418 253.771 67.7227 254.005 67.957C254.263 68.168 254.545 68.4023 254.849 68.6602C254.966 68.9648 255.119 69.293 255.306 69.6445C255.517 69.9727 255.716 70.3125 255.904 70.6641C256.091 71.0156 256.255 71.3672 256.396 71.7188C256.537 72.0469 256.607 72.3633 256.607 72.668ZM253.338 73.1953C253.08 72.6562 252.834 72.0938 252.599 71.5078C252.365 70.9219 252.072 70.3945 251.72 69.9258C251.298 69.8086 250.865 69.668 250.42 69.5039C249.998 69.3164 249.705 69 249.541 68.5547C249.494 68.5781 249.412 68.5898 249.295 68.5898C249.084 68.5898 248.896 68.5078 248.732 68.3438C248.568 68.1797 248.38 68.0742 248.17 68.0273C247.982 68.0039 247.724 67.9688 247.396 67.9219C247.091 67.875 246.763 67.8398 246.412 67.8164C246.06 67.793 245.709 67.7695 245.357 67.7461C245.029 67.7227 244.771 67.7109 244.584 67.7109C244.396 67.7109 244.197 67.7227 243.986 67.7461C243.798 67.7461 243.599 67.7578 243.388 67.7812C243.201 67.7812 243.084 67.8164 243.037 67.8867C242.99 67.9336 242.896 67.9805 242.755 68.0273C242.638 67.9805 242.509 67.957 242.369 67.957H241.947C241.455 67.957 240.963 68.0391 240.47 68.2031C240.002 68.3438 239.533 68.543 239.064 68.8008V68.9414C239.064 69.1289 239.146 69.2344 239.31 69.2578C239.474 69.2812 239.568 69.375 239.591 69.5391C239.474 69.5391 239.38 69.5508 239.31 69.5742C239.24 69.5742 239.205 69.6562 239.205 69.8203C239.205 70.0547 239.228 70.3125 239.275 70.5938C239.345 70.875 239.38 71.1562 239.38 71.4375C239.38 71.6484 239.357 71.8945 239.31 72.1758C239.263 72.457 239.146 72.6797 238.959 72.8438C239.193 73.0547 239.31 73.3359 239.31 73.6875C239.31 73.9219 239.263 74.168 239.17 74.4258C239.076 74.6836 238.959 74.9062 238.818 75.0938C238.771 76.0781 238.677 77.0742 238.537 78.082C238.396 79.0898 238.326 80.0859 238.326 81.0703C238.326 81.5625 238.349 82.043 238.396 82.5117C238.466 82.9805 238.572 83.4492 238.713 83.918C238.97 84.1758 239.24 84.375 239.521 84.5156C239.826 84.6562 240.142 84.7969 240.47 84.9375V85.043C240.47 85.1133 240.423 85.1836 240.33 85.2539C240.236 85.3242 240.189 85.418 240.189 85.5352C240.189 85.6289 240.236 85.6758 240.33 85.6758C241.314 85.3945 242.24 85.0547 243.107 84.6562C243.974 84.2578 244.783 83.7188 245.533 83.0391C245.603 82.9688 245.673 82.9336 245.744 82.9336C245.791 82.9336 245.849 82.9453 245.92 82.9688C246.013 82.9922 246.095 83.0156 246.166 83.0391L246.13 82.8984C246.13 82.7578 246.166 82.6289 246.236 82.5117C246.33 82.3945 246.435 82.2891 246.552 82.1953L246.904 81.8789C247.021 81.7617 247.115 81.6445 247.185 81.5273C247.373 81.4805 247.502 81.3867 247.572 81.2461C247.666 81.1055 247.818 81.0352 248.029 81.0352C248.076 80.7773 248.205 80.5898 248.416 80.4727C248.627 80.332 248.755 80.1328 248.802 79.875C249.271 79.6172 249.681 79.3008 250.033 78.9258C250.408 78.5508 250.748 78.1523 251.052 77.7305C251.38 77.3086 251.685 76.875 251.966 76.4297C252.248 75.9609 252.541 75.5156 252.845 75.0938V74.9531C252.845 74.5781 252.904 74.2734 253.021 74.0391C253.162 73.8047 253.267 73.5234 253.338 73.1953ZM294.752 85.5703C294.752 85.9688 294.646 86.3203 294.435 86.625C294.248 86.9062 294.177 87.2578 294.224 87.6797C293.896 87.8672 293.627 88.1133 293.416 88.418C293.205 88.7227 293.005 89.0391 292.818 89.3672C291.271 90.375 289.607 91.1836 287.826 91.793C286.068 92.4258 284.252 92.7422 282.377 92.7422C282.259 92.7422 282.154 92.6836 282.06 92.5664C281.966 92.4727 281.873 92.3672 281.779 92.25C281.685 92.1328 281.58 92.0156 281.462 91.8984C281.369 91.8047 281.252 91.7578 281.111 91.7578C280.947 91.7578 280.818 91.793 280.724 91.8633C280.724 91.8164 280.724 91.7695 280.724 91.7227C280.748 91.6992 280.759 91.6641 280.759 91.6172C280.759 91.3359 280.724 91.043 280.654 90.7383C280.584 90.457 280.548 90.1758 280.548 89.8945C280.548 89.5664 280.607 89.2969 280.724 89.0859H281.146C281.38 89.0859 281.603 89.0742 281.814 89.0508C282.048 89.0039 282.295 88.9805 282.552 88.9805C282.81 88.9805 283.045 89.0508 283.255 89.1914C284.545 89.1445 285.763 88.9102 286.912 88.4883C288.084 88.043 289.267 87.6094 290.462 87.1875C290.65 86.9297 290.755 86.6484 290.779 86.3438C290.826 86.0156 290.92 85.7109 291.06 85.4297C290.451 84.9141 289.83 84.5156 289.197 84.2344C288.587 83.9297 287.873 83.8242 287.052 83.918C286.56 83.6133 286.033 83.4375 285.47 83.3906C284.931 83.3438 284.38 83.2734 283.818 83.1797C283.677 83.1562 283.525 83.1328 283.361 83.1094C283.22 83.0625 283.068 83.0391 282.904 83.0391C282.787 83.0391 282.67 83.0742 282.552 83.1445C282.459 83.1914 282.435 83.2734 282.482 83.3906C282.365 83.2031 282.201 83.0977 281.99 83.0742C281.802 83.0273 281.638 82.9336 281.498 82.793C280.748 82.7461 280.091 82.6172 279.529 82.4062C278.966 82.1719 278.345 81.9141 277.666 81.6328C277.478 81.5625 277.291 81.5156 277.103 81.4922C276.939 81.4453 276.775 81.375 276.611 81.2812C276.189 81.0703 275.849 80.7891 275.591 80.4375C275.334 80.0859 275.134 79.6992 274.994 79.2773C274.83 78.832 274.712 78.375 274.642 77.9062C274.572 77.4375 274.502 77.0039 274.431 76.6055C274.642 76.2305 274.841 75.8438 275.029 75.4453C275.193 75.0469 275.334 74.625 275.451 74.1797C275.591 74.1094 275.732 74.0508 275.873 74.0039C276.013 73.957 276.166 73.8984 276.33 73.8281C276.306 73.7812 276.295 73.7227 276.295 73.6523C276.295 73.5352 276.33 73.418 276.4 73.3008C276.494 73.1836 276.517 73.0664 276.47 72.9492C276.986 72.4805 277.478 72 277.947 71.5078C278.439 70.9922 278.861 70.4297 279.212 69.8203C279.564 69.7031 279.845 69.5273 280.056 69.293C280.267 69.0586 280.478 68.8242 280.689 68.5898C280.9 68.332 281.134 68.1094 281.392 67.9219C281.65 67.7109 281.978 67.582 282.377 67.5352C282.47 67.3711 282.599 67.2422 282.763 67.1484C282.927 67.0312 283.091 66.9258 283.255 66.832C283.42 66.7383 283.572 66.6328 283.712 66.5156C283.853 66.3984 283.959 66.2344 284.029 66.0234C284.404 66.0234 284.744 65.9531 285.048 65.8125C285.377 65.6719 285.693 65.5195 285.998 65.3555C286.302 65.1914 286.607 65.0391 286.912 64.8984C287.24 64.7578 287.591 64.6875 287.966 64.6875C288.06 64.6875 288.154 64.6992 288.248 64.7227C288.341 64.7227 288.447 64.7344 288.564 64.7578C288.728 64.9219 288.834 65.1211 288.88 65.3555C288.951 65.5664 288.998 65.8008 289.021 66.0586C289.045 66.3164 289.056 66.5742 289.056 66.832C289.08 67.0898 289.127 67.3242 289.197 67.5352C288.986 67.9336 288.752 68.332 288.494 68.7305C288.259 69.1289 287.943 69.4336 287.545 69.6445H287.474C287.31 69.668 287.158 69.6328 287.017 69.5391C286.877 69.4453 286.712 69.3984 286.525 69.3984C286.408 69.3984 286.314 69.4336 286.244 69.5039L286.068 69.6797C286.021 69.7266 285.951 69.7734 285.857 69.8203C285.787 69.8672 285.681 69.8672 285.541 69.8203C285.212 69.9375 285.084 70.1367 285.154 70.418C284.709 70.4648 284.334 70.6055 284.029 70.8398C283.724 71.0508 283.443 71.2969 283.185 71.5781C282.927 71.8359 282.67 72.082 282.412 72.3164C282.154 72.5273 281.849 72.6445 281.498 72.668C281.099 73.3711 280.607 73.9922 280.021 74.5312C279.459 75.0703 278.99 75.6797 278.615 76.3594C278.685 76.5469 278.732 76.7461 278.755 76.957C278.779 77.168 278.814 77.3906 278.861 77.625C279.072 77.9062 279.318 78.1523 279.599 78.3633C279.904 78.5742 280.197 78.7852 280.478 78.9961H280.584C281.052 78.9961 281.486 79.0898 281.884 79.2773C282.283 79.4414 282.705 79.5234 283.15 79.5234C283.384 79.5234 283.584 79.4766 283.748 79.3828C284.357 79.5234 284.955 79.6406 285.541 79.7344C286.15 79.8281 286.759 79.8984 287.369 79.9453C287.673 79.9922 287.978 80.0156 288.283 80.0156C288.611 80.0156 288.916 80.0508 289.197 80.1211C289.455 80.1914 289.712 80.2852 289.97 80.4023C290.228 80.4961 290.486 80.6016 290.744 80.7188C291.283 80.9531 291.787 81.2109 292.255 81.4922C292.748 81.7734 293.181 82.1133 293.556 82.5117C293.931 82.8867 294.224 83.332 294.435 83.8477C294.646 84.3398 294.752 84.9141 294.752 85.5703Z" fill="black"/>
</g>
<rect x="78" y="26" width="6" height="6" rx="3" fill="#E7211E"/>
<rect x="107" y="77" width="6" height="6" rx="3" fill="#E7211E"/>
<rect x="219" y="77" width="6" height="6" rx="3" fill="#E7211E"/>
<rect x="207" y="26" width="6" height="6" rx="3" fill="#04B2F2"/>
<rect x="136" y="77" width="6" height="6" rx="3" fill="#04B2F2"/>
<rect x="262" y="77" width="6" height="6" rx="3" fill="#04B2F2"/>
<rect x="44" y="77" width="6" height="6" rx="3" fill="#FDB725"/>
<rect x="175" y="77" width="6" height="6" rx="3" fill="#FDB725"/>
<defs>
<filter id="filter0_d" x="7.27979" y="12.332" width="291.472" height="90.5547" filterUnits="userSpaceOnUse" color-interpolation-filters="sRGB">
<feFlood flood-opacity="0" result="BackgroundImageFix"/>
<feColorMatrix in="SourceAlpha" type="matrix" values="0 0 0 0 0 0 0 0 0 0 0 0 0 0 0 0 0 0 127 0"/>
<feOffset dy="4"/>
<feGaussianBlur stdDeviation="2"/>
<feColorMatrix type="matrix" values="0 0 0 0 0 0 0 0 0 0 0 0 0 0 0 0 0 0 0.25 0"/>
<feBlend mode="normal" in2="BackgroundImageFix" result="effect1_dropShadow"/>
<feBlend mode="normal" in="SourceGraphic" in2="effect1_dropShadow" result="shape"/>
</filter>
</defs>
</svg>
